# xmcd
#
# Track frame offsets:
#	150
#	17459
#	32372
#	47721
#	66502
#	86744
#	103493
#	117329
#	130332
#	148241
#	162485
#	175079
#
# Disc length: 2626 seconds
#
# Revision: 1
# Processed by: cddbd v1.5.2PL0 Copyright (c) Steve Scherf et al.
# Submitted via: audiograbber 1.83.01
#
DISCID=ab0a400c
DTITLE=Steve Hill - Solo Recordings Volume One
DYEAR=2012
DGENRE=Blues
TTITLE0=Ever Changing World
TTITLE1=Love Got Us Blind
TTITLE2=Honey Bee
TTITLE3=Out Of Phase
TTITLE4=King Of The World
TTITLE5=The Ballad Of Johnny Wabo
TTITLE6=Poilitician
TTITLE7=Gotta Be Strong And Carry On
TTITLE8=Ain't Wastin Time No More
TTITLE9=Preachin' Blues
TTITLE10=Comin' Back To You 
TTITLE11=Granted
EXTD=
EXTT0=
EXTT1=
EXTT2=
EXTT3=
EXTT4=
EXTT5=
EXTT6=
EXTT7=
EXTT8=
EXTT9=
EXTT10=
EXTT11=
PLAYORDER=
